<svg xmlns="http://www.w3.org/2000/svg" viewBox="0 0 1000 1000" enable-background="new 0 0 1000 1000"><path fill="#F05133" d="M981.1 455.5l-436.6-436.6c-25.1-25.2-65.9-25.2-91.1 0l-90.7 90.7 115 115c26.7-9 57.4-3 78.7 18.3 21.4 21.4 27.4 52.3 18.2 79.2l110.8 110.8c26.8-9.2 57.8-3.3 79.2 18.2 29.9 29.9 29.9 78.4 0 108.4-29.9 29.9-78.4 29.9-108.4 0-22.5-22.5-28.1-55.6-16.7-83.3l-103.3-103.5v272c7.3 3.6 14.2 8.4 20.3 14.5 29.9 29.9 29.9 78.4 0 108.4-29.9 29.9-78.5 29.9-108.4 0-29.9-30-29.9-78.5 0-108.4 7.4-7.4 16-13 25.1-16.7v-274.5c-9.1-3.7-17.7-9.3-25.1-16.7-22.7-22.7-28.1-55.9-16.5-83.8l-113.4-113.4-299.3 299.3c-25.1 25.2-25.1 65.9 0 91.1l436.6 436.6c25.1 25.1 65.9 25.1 91.1 0l434.6-434.6c25.1-25.1 25.1-65.9-.1-91z"/></svg>