<svg xmlns="http://www.w3.org/2000/svg" viewBox="0 0 50 50" enable-background="new 0 0 50 50"><g fill="#414042"><path d="M7.1 27.9l3.1.1c-.1-.4 0-.7.2-1l-4-1.6c0 .3-.1.7-.3 1l1 1.5zM6.2 23.6c.2.3.3.7.3 1l4-1.6-.2-.3c-.1-.2-.1-.4-.1-.7l-3.1.1-.9 1.5zM11.7 21.2c-.1 0-.2 0-.3.1-.2.1-.4.3-.5.5-.1.2-.1.5 0 .7.1.2.2.3.3.4.3.2.6.2.8.1.5-.2.7-.7.5-1.2-.1-.4-.5-.6-.8-.6M11.7 26.9c-.1 0-.2 0-.3.1-.1 0-.2.1-.2.1-.3.3-.4.7-.3 1v.1c.2.3.5.5.8.5.1 0 .2 0 .3-.1.5-.2.7-.7.5-1.2-.1-.3-.5-.5-.8-.5"/><path d="M4.5 22l.4.2c.4.2.7.5 1 .8l1.4-2.3h-.1c-.2-.1-.4-.3-.5-.5l-2.2 1.8zM7.9 18.5c-.3 0-.6.2-.8.5-.1.2-.1.5-.1.7.1.2.2.4.4.5l.3.1c.4.1.8-.1 1-.4.1-.2.2-.5.1-.7-.1-.2-.2-.5-.4-.6l-.5-.1M4.5 28l2.2 1.8c.1-.2.3-.4.5-.5h.1l-1.4-2.3c-.4.4-.8.8-1.4 1M7.9 29.6h-.2l-.3.1c-.2.1-.4.3-.4.5 0 .3 0 .6.1.8.2.3.5.5.8.5.2 0 .3 0 .5-.1s.4-.3.4-.6c.1-.2 0-.5-.1-.7-.2-.3-.5-.5-.8-.5M3.4 22.4c-.9 0-1.8.5-2.3 1.3-.7 1.3-.3 2.9 1 3.6.6.3 1.2.4 1.9.3.7-.2 1.3-.6 1.7-1.3v-.1l.1-.1c.1-.3.2-.7.2-1.1 0-.4-.1-.9-.3-1.3v-.1c-.2-.4-.6-.7-1-1-.2-.1-.5-.2-.8-.3-.2.1-.4.1-.5.1"/><path d="M12.2 37.9l2.6-1.8c-.3-.3-.4-.6-.4-1l-4.1 1c.2.3.3.6.4 1l1.5.8zM9 34.9c.3.2.6.4.8.6l2.3-3.7c-.1 0-.2-.1-.4-.2s-.4-.3-.5-.5l-2.5 1.9.3 1.9zM12 29.8l-.2.2c-.1.2-.2.5-.1.7.1.2.2.4.4.5.2.1.3.1.5.1.3 0 .6-.2.7-.4.3-.4.1-1-.3-1.2-.3-.2-.7-.2-1 .1M15.3 34.4c-.1.1-.2.2-.2.3 0 .1-.1.2-.1.2-.1.4.1.8.4 1 .3.2.7.1 1-.1l.2-.2c.3-.4.1-1-.3-1.3-.3-.2-.7-.2-1 .1"/><path d="M6.7 34.6l.5-.1c.4 0 .9 0 1.3.1l-.4-2.6h-.1c-.2 0-.5 0-.7-.1l-.6 2.7zM7.4 29.8c-.3.2-.4.5-.4.9 0 .2.2.5.4.6.2.1.4.2.7.2.1 0 .2 0 .3-.1.4-.2.6-.5.5-.9 0-.2-.1-.5-.3-.6-.2-.2-.4-.2-.7-.2-.2 0-.4 0-.5.1M10.2 39.4l2.8.2c0-.2 0-.5.1-.7v-.1l-2.5-1.1c.1.7-.1 1.2-.4 1.7M13.9 38.8c-.1 0-.1.1-.1.1-.1.1-.1.2-.2.2-.1.2-.1.5 0 .7.1.2.3.4.5.5.3.1.6.1.9-.1.1-.1.2-.2.3-.4.1-.2.1-.5 0-.7-.1-.2-.3-.4-.5-.5-.3 0-.6 0-.9.2M5.9 35.6c-.8.6-1.2 1.5-1.1 2.4.1 1.4 1.5 2.5 2.9 2.4.7-.1 1.3-.4 1.8-.9s.7-1.3.7-2v-.2c-.1-.4-.2-.7-.4-1.1-.3-.4-.6-.6-1-.8h-.1c-.4-.2-.9-.3-1.4-.2-.3 0-.6.1-.8.2-.3 0-.4.1-.6.2"/><path d="M22.2 42.9l1.1-3c-.4-.1-.7-.2-.9-.5l-2.7 3.3.9.6 1.6-.4zM17.9 42.4h1l-.3-4.3-.4.1c-.2 0-.5 0-.7-.1l-.9 3 1.3 1.3zM17.3 36.5c0 .1-.1.2 0 .3 0 .3.1.5.3.6.2.1.4.2.6.2.2 0 .4-.1.5-.2.2-.2.4-.5.3-.8 0-.5-.5-.9-1-.8-.3.1-.6.4-.7.7M22.7 38.3c0 .1-.1.2 0 .3 0 .1 0 .2.1.3.1.4.5.6.9.6h.1c.3 0 .6-.3.7-.6v-.3c0-.5-.5-.9-1-.8-.4-.1-.7.1-.8.5"/><path d="M15.8 43.6c.1-.1.2-.2.3-.4.3-.3.7-.5 1.1-.6l-1.8-2-.1.1c-.2.2-.4.3-.6.3l1.1 2.6zM13.6 39.3c-.1.3 0 .7.2.9.2.2.4.3.7.3.2 0 .5-.1.6-.2l.2-.2c.2-.4.1-.8-.1-1.1-.2-.2-.4-.3-.6-.3-.2 0-.5.1-.7.2-.2.1-.3.2-.3.4M21.5 45.4l2.4-1.5c-.1-.2-.3-.4-.3-.6v-.1l-2.6.6c.3.4.5 1 .5 1.6M24.1 42.7v.5c0 .2.2.4.4.6.2.1.5.2.7.1.3-.1.6-.3.7-.6.1-.2.1-.3 0-.5 0-.2-.2-.4-.4-.6-.2-.1-.5-.2-.7-.1-.3 0-.6.3-.7.6M15.8 44.8c-.3.9-.1 1.9.5 2.6 1 1.1 2.7 1.2 3.7.2.5-.4.8-1 .9-1.7.1-.7-.2-1.5-.7-2v-.1l-.1-.1c-.3-.3-.6-.5-1-.6-.4-.1-.9-.2-1.3-.1h-.1c-.5.1-.9.3-1.2.6-.2.2-.4.4-.5.6-.1.2-.2.4-.2.6"/><path d="M33.3 41.1l-.9-3c-.3.2-.7.2-1.1.1l-.3 4.3c.3-.1.7-.1 1.1 0l1.2-1.4zM29.5 43.3l.9-.6-2.8-3.3-.3.3-.6.3 1.1 2.9 1.7.4zM25.5 38.9c0 .1.1.2.2.3.2.2.4.3.7.3.2 0 .4-.1.6-.2l.3-.4c.1-.3 0-.6-.2-.8-.3-.4-.9-.4-1.3-.1-.3.1-.4.5-.3.9M30.9 37.1c0 .1.1.2.2.3l.2.2c.3.2.8.2 1.1-.1.2-.2.3-.6.2-.9 0-.1-.1-.2-.2-.3-.3-.4-.9-.4-1.3-.1-.2.2-.3.5-.2.9"/><path d="M28.5 45.4c0-.2 0-.3.1-.5.1-.4.3-.8.5-1.2l-2.6-.6v.1c-.1.2-.2.5-.3.6l2.3 1.6zM24.1 43.3c.1.3.4.6.7.6.2.1.5 0 .7-.1.2-.1.3-.3.4-.6v-.3c0-.4-.3-.7-.7-.8-.2-.1-.5 0-.7.1-.2.1-.4.3-.4.6v.5M34.2 43.6l1.1-2.6-.6-.3-.1-.1-1.8 2c.5.2 1 .5 1.4 1M34.7 39.8c0 .1 0 .1.1.2s.1.2.2.2c.2.2.4.2.6.2.3 0 .5-.1.7-.3.2-.2.3-.6.2-.9 0-.1-.1-.3-.3-.4-.2-.2-.4-.3-.7-.2-.2 0-.5.1-.6.3-.2.3-.3.6-.2.9M29.2 46.4c.3.9 1 1.6 2 1.8 1.4.3 2.8-.6 3.1-2 .1-.6 0-1.3-.3-1.9-.4-.6-1-1.1-1.7-1.2l-.3-.1c-.4-.1-.8 0-1.1.1-.4.1-.8.4-1.1.7-.3.3-.5.8-.6 1.2-.1.3-.1.5 0 .8-.1.3-.1.4 0 .6"/><path d="M41.2 33.2l-2.5-1.9c-.2.3-.4.6-.8.7l2.2 3.6c.2-.3.5-.5.8-.6l.3-1.8zM39.4 37.2c.1-.3.2-.7.4-1l-4.2-1v.4l-.3.6 2.6 1.7 1.5-.7zM33.6 35.9c.1.1.2.1.3.1.2.1.5 0 .7-.1.2-.1.3-.3.4-.5v-.5c-.1-.3-.3-.5-.6-.6-.5-.1-1 .2-1.1.7-.2.3 0 .7.3.9M36.9 31.3c.1.1.2.1.3.1h.3c.4 0 .7-.3.8-.7v-.1c.1-.3-.1-.7-.4-.9l-.3-.2c-.5-.1-1 .2-1.1.7 0 .5.1.9.4 1.1"/><path d="M39.8 39.4c-.1-.1-.2-.3-.2-.4-.2-.4-.3-.8-.3-1.2l-2.5 1.1v.1c.1.2.1.5.1.7l2.9-.3zM35 40.3c.3.2.6.2.9.1.2-.1.4-.3.5-.5.1-.2.1-.5 0-.7 0-.1-.1-.2-.2-.2-.3-.3-.7-.4-1.1-.2-.2.1-.4.3-.5.5-.1.2-.1.5 0 .7.2.1.3.2.4.3M43.3 34.6l-.7-2.7c-.2.1-.4.1-.7.1h-.1l-.3 2.7c.6-.2 1.2-.2 1.8-.1M41.6 31.3c.1.1.1.1.2.1l.3.1c.2 0 .5 0 .6-.2.2-.2.3-.4.4-.6 0-.3-.1-.7-.4-.8-.1-.1-.3-.2-.4-.2-.3 0-.5 0-.7.2-.2.1-.3.4-.3.6-.1.3 0 .6.3.8M41 39.9c.8.6 1.8.7 2.6.3 1.3-.6 1.9-2.2 1.3-3.5-.3-.6-.8-1.1-1.3-1.3-.7-.3-1.4-.3-2.1 0h-.2c-.3.2-.6.4-.9.8-.3.4-.4.8-.5 1.2v.1c-.1.5 0 .9.2 1.4.1.3.3.5.5.7l.4.3"/><path d="M42.9 22.1l-3.1-.1c.1.4 0 .7-.2 1l3.9 1.6c0-.4.1-.7.3-1l-.9-1.5zM43.8 26.4c-.2-.3-.3-.7-.3-1l-4 1.6.2.3c.1.2.1.4.1.7l3.1-.1.9-1.5zM38.3 28.8c.1 0 .2 0 .3-.1.2-.1.4-.3.5-.5.1-.2.1-.4 0-.7-.1-.2-.2-.3-.3-.4-.2-.2-.6-.2-.8-.1-.5.2-.7.7-.5 1.2.1.4.5.6.8.6M38.3 23.1c.1 0 .2 0 .3-.1.1 0 .2-.1.2-.1.3-.2.4-.7.3-1v-.1c-.2-.3-.5-.5-.8-.5-.1 0-.2 0-.3.1-.5.2-.7.7-.5 1.2.1.3.5.5.8.5"/><path d="M45.5 28l-.4-.2c-.4-.2-.7-.5-1-.8l-1.3 2.3h.1c.2.1.4.3.5.5l2.1-1.8zM42.1 31.5c.3 0 .6-.2.8-.5.1-.2.2-.5.1-.7-.1-.2-.2-.4-.4-.5-.1-.1-.2-.1-.3-.1-.4-.1-.8.1-1 .4-.1.2-.2.5-.1.7.1.2.2.4.4.6l.5.1M45.5 22l-2.2-1.8c-.1.2-.3.4-.5.5h-.1l1.3 2.3c.5-.4.9-.8 1.5-1M42.1 20.4h.2l.3-.1c.2-.1.3-.3.4-.5.1-.2.1-.5-.1-.7-.2-.3-.5-.5-.8-.5-.2 0-.3 0-.5.1s-.4.3-.4.6c-.1.2 0 .5.1.7.2.2.5.4.8.4M46.7 27.7c.9 0 1.8-.5 2.3-1.3.7-1.3.3-2.9-1-3.6-.6-.3-1.2-.4-1.9-.3-.7.2-1.3.6-1.7 1.2l-.1.1c-.2.4-.3.8-.3 1.2 0 .4.1.9.3 1.3.2.4.6.7 1 1 .2.1.5.2.8.3l.6.1"/><path d="M37.8 12.1l-2.6 1.8c.3.2.4.6.4 1l4.1-1c-.2-.3-.3-.6-.4-1l-1.5-.8zM41 15.1c-.3-.2-.6-.4-.8-.6l-2.3 3.7c.1 0 .2.1.4.2s.4.3.5.5l2.5-1.9-.3-1.9zM38 20.2c.1-.1.2-.2.2-.3.1-.2.2-.5.1-.7-.1-.2-.2-.4-.4-.5-.2-.1-.3-.1-.5-.1-.3 0-.6.2-.7.4-.3.4-.1 1 .3 1.2.3.3.7.3 1 0M34.7 15.6c.1-.1.2-.2.2-.3.1-.1.1-.2.1-.2.1-.4-.1-.8-.4-1h-.1c-.3-.2-.7-.1-1 .1-.1.1-.2.1-.2.3-.3.4-.1 1 .3 1.2.4.2.8.2 1.1-.1"/><path d="M43.3 15.4c-.2.1-.3.1-.5.1-.4 0-.9 0-1.3-.1l.3 2.7h.1c.2 0 .5 0 .7.1l.7-2.8zM42.6 20.2c.3-.2.4-.5.4-.8 0-.2-.2-.5-.4-.6-.2-.1-.4-.2-.7-.2-.1 0-.2 0-.3.1-.4.2-.6.6-.5.9 0 .2.1.5.3.6.2.2.4.2.7.2.3 0 .4-.1.5-.2M39.8 10.6l-2.8-.2c0 .2 0 .5-.1.7v.1l2.5 1.1c-.1-.7.1-1.2.4-1.7M36.1 11.2c.1 0 .1-.1.1-.1l.2-.2c.1-.2.1-.5 0-.7-.1-.2-.3-.4-.5-.5-.3-.1-.6-.1-.9.1-.1.1-.2.2-.3.4-.1.2-.1.5 0 .7.1.2.3.4.5.5.3 0 .6 0 .9-.2M44.1 14.4c.8-.5 1.2-1.5 1.1-2.4-.1-1.5-1.5-2.5-2.9-2.4-.7.1-1.3.4-1.7.8-.5.5-.7 1.3-.6 2v.2c.1.4.2.7.5 1.1.3.4.6.6 1 .8h.1c.4.2.9.3 1.4.2.3 0 .6-.1.8-.2 0 .1.1 0 .3-.1"/><path d="M27.8 7.1l-1.1 3c.4.1.7.3.9.5l2.7-3.3c-.3-.1-.6-.3-.8-.6l-1.7.4zM32.1 7.6c-.4.1-.7 0-1.1 0l.3 4.3.4-.1c.2 0 .5 0 .7.1l.9-3-1.2-1.3zM32.7 13.5c0-.1.1-.2 0-.3 0-.3-.1-.5-.3-.7-.2-.1-.4-.2-.6-.2-.2 0-.4.1-.5.2-.2.2-.3.5-.3.8 0 .5.5.9 1 .8.3 0 .6-.3.7-.6M27.3 11.7c0-.1.1-.2 0-.3 0-.1 0-.2-.1-.3-.1-.4-.5-.6-.9-.6-.3.1-.6.3-.7.6v.3c0 .5.5.9 1 .8.3.1.6-.1.7-.5"/><path d="M34.2 6.4l-.3.3c-.3.3-.7.5-1.1.7l1.8 2 .1-.1c.1-.1.3-.2.5-.3l-1-2.6zM36.4 10.8c.1-.3 0-.7-.2-.9-.2-.2-.4-.3-.7-.3-.2 0-.5.1-.6.2l-.2.2c-.2.4-.2.8.1 1.1.2.2.4.3.6.3.2 0 .5-.1.7-.2.2-.2.3-.3.3-.4M28.5 4.6l-2.4 1.5.3.6v.1l2.6-.6c-.3-.4-.5-1-.5-1.6M25.9 7.3v-.5c0-.2-.2-.4-.4-.6-.2-.1-.5-.2-.7-.1-.3.1-.6.3-.7.6-.1.2-.1.3 0 .5 0 .2.2.5.4.6.2.1.4.2.7.1.3 0 .6-.3.7-.6M34.2 5.2c.3-.9.1-1.9-.6-2.6-1-1.1-2.7-1.2-3.7-.2-.5.4-.8 1-.9 1.7-.1.7.2 1.5.7 2v.1l.1.1c.3.3.6.5 1 .6.4.1.9.2 1.3.1h.1c.5-.1.9-.3 1.2-.6.3-.2.4-.4.6-.7.1-.1.2-.3.2-.5"/><path d="M16.7 8.9l.9 3c.3-.2.7-.2 1.1-.1l.3-4.2c-.3.1-.7.1-1 0l-1.3 1.3zM20.5 6.7c-.2.3-.5.5-.9.6l2.8 3.3.3-.3.6-.3-1.1-2.9-1.7-.4zM24.5 11.1c0-.1-.1-.2-.2-.3-.2-.2-.4-.3-.7-.3-.2 0-.5.1-.6.2-.1.1-.2.3-.3.5-.1.3 0 .6.2.8.3.4.9.4 1.3.1.3-.2.4-.6.3-1M19.1 12.9c0-.1-.1-.2-.2-.3 0-.1-.1-.1-.2-.2-.3-.2-.8-.2-1.1.1-.3.2-.3.6-.2.9 0 .1.1.2.2.3.3.4.9.4 1.3.1.2-.2.3-.5.2-.9"/><path d="M21.5 4.6c0 .2 0 .3-.1.5-.1.4-.3.8-.5 1.2l2.6.6v-.1c.1-.2.2-.5.3-.6l-2.3-1.6zM25.9 6.7c-.1-.3-.4-.6-.7-.6-.2-.1-.5 0-.7.1-.2.1-.3.3-.4.6v.3c0 .4.3.7.7.8.2 0 .5 0 .7-.1.2-.1.3-.3.4-.6v-.5M15.8 6.4l-1 2.6.6.3.1.1 1.8-2c-.6-.2-1.1-.5-1.5-1M15.3 10.2l-.1-.2c-.1-.1-.1-.2-.2-.2-.2-.2-.4-.2-.6-.2-.3 0-.5.1-.7.3-.2.2-.3.6-.2.9.1.2.1.3.3.4.2.2.4.2.7.2.2 0 .5-.1.6-.3.2-.3.3-.6.2-.9M20.8 3.6c-.3-.9-1-1.6-2-1.8-1.4-.3-2.8.6-3.1 2-.1.6 0 1.3.3 1.9.4.6 1 1.1 1.7 1.2h.1l.2.1c.4 0 .8 0 1.1-.1.4-.1.8-.4 1.1-.7.3-.3.5-.8.6-1.2.1-.3.1-.6 0-.8.1-.2.1-.4 0-.6"/><path d="M8.8 16.8l2.5 1.9c.2-.3.4-.6.8-.7l-2.3-3.6c-.2.3-.5.5-.8.6l-.2 1.8zM10.6 12.8c-.1.3-.2.7-.4 1l4.2 1v-.4l.3-.6-2.6-1.7-1.5.7zM16.4 14.1c0-.1-.2-.1-.3-.1-.2-.1-.5 0-.7.1-.2.1-.3.3-.4.5v.5c.1.3.3.5.6.5.5.1 1-.2 1.1-.6.2-.3 0-.7-.3-.9M13.1 18.7c-.1-.1-.2-.1-.3-.1h-.3c-.4 0-.7.3-.8.7-.1.4.1.7.4.9.1.1.2.1.3.1.5.1 1-.2 1.1-.7 0-.3-.1-.7-.4-.9"/><path d="M10.2 10.6c.1.1.2.3.2.4.2.4.3.8.3 1.2l2.5-1.1v-.1c-.2-.2-.2-.4-.2-.6l-2.8.2zM15 9.7c-.3-.2-.6-.2-.9-.1-.2.1-.4.3-.5.5-.1.2-.1.5 0 .7 0 .1.1.2.2.2.3.3.7.4 1.1.2.2-.1.4-.3.5-.5.1-.2.1-.5 0-.7-.2-.1-.3-.2-.4-.3M6.7 15.4l.7 2.7c.2-.1.4-.1.7-.1h.1l.3-2.7c-.6.2-1.2.2-1.8.1M8.4 18.7l-.2-.1-.3-.1c-.2 0-.5.1-.7.2-.1.2-.2.4-.2.6 0 .3.1.7.4.8.1.1.3.2.4.2.2 0 .5 0 .7-.2.2-.2.3-.4.3-.6.1-.3-.1-.6-.4-.8M9 10.1c-.7-.5-1.7-.6-2.6-.2-1.3.6-1.9 2.2-1.3 3.5.3.6.8 1.1 1.3 1.3.7.3 1.4.3 2.1 0h.1l.1-.1c.3-.2.6-.4.9-.8.3-.4.4-.8.5-1.2v-.1c.1-.5 0-.9-.2-1.4l-.4-.7c-.2 0-.3-.2-.5-.3"/></g></svg>