<?xml version="1.0" encoding="utf-8"?>
<!-- Generator: Adobe Illustrator 17.1.0, SVG Export Plug-In . SVG Version: 6.00 Build 0)  -->
<!DOCTYPE svg PUBLIC "-//W3C//DTD SVG 1.1//EN" "http://www.w3.org/Graphics/SVG/1.1/DTD/svg11.dtd">
<svg version="1.1" id="Layer_1" xmlns="http://www.w3.org/2000/svg" xmlns:xlink="http://www.w3.org/1999/xlink" x="0px" y="0px"
	 viewBox="0 0 1000 1000" enable-background="new 0 0 1000 1000" xml:space="preserve">
<g>
	<path fill="#F05133" d="M981.1,455.5L544.5,18.9c-25.1-25.2-65.9-25.2-91.1,0l-90.7,90.7l115,115c26.7-9,57.4-3,78.7,18.3
		c21.4,21.4,27.4,52.3,18.2,79.2l110.8,110.8c26.8-9.2,57.8-3.3,79.2,18.2c29.9,29.9,29.9,78.4,0,108.4
		c-29.9,29.9-78.4,29.9-108.4,0c-22.5-22.5-28.1-55.6-16.7-83.3L536.2,372.7v272c7.3,3.6,14.2,8.4,20.3,14.5
		c29.9,29.9,29.9,78.4,0,108.4c-29.9,29.9-78.5,29.9-108.4,0c-29.9-30-29.9-78.5,0-108.4c7.4-7.4,16-13,25.1-16.7V368
		c-9.1-3.7-17.7-9.3-25.1-16.7c-22.7-22.7-28.1-55.9-16.5-83.8L318.2,154.1L18.9,453.4c-25.1,25.2-25.1,65.9,0,91.1l436.6,436.6
		c25.1,25.1,65.9,25.1,91.1,0l434.6-434.6C1006.3,521.4,1006.3,480.6,981.1,455.5z"/>
</g>
</svg>
