<?xml version="1.0" encoding="utf-8"?>
<!-- Generator: Adobe Illustrator 17.1.0, SVG Export Plug-In . SVG Version: 6.00 Build 0)  -->
<!DOCTYPE svg PUBLIC "-//W3C//DTD SVG 1.1//EN" "http://www.w3.org/Graphics/SVG/1.1/DTD/svg11.dtd">
<svg version="1.1" id="Layer_1" xmlns="http://www.w3.org/2000/svg" xmlns:xlink="http://www.w3.org/1999/xlink" x="0px" y="0px"
	 viewBox="0 0 50 50" enable-background="new 0 0 50 50" xml:space="preserve">
<g>
	<path fill="#414042" d="M7.1,27.9l3.1,0.1c-0.1-0.4,0-0.7,0.2-1l-4-1.6c0,0.3-0.1,0.7-0.3,1L7.1,27.9z"/>
	<path fill="#414042" d="M6.2,23.6c0.2,0.3,0.3,0.7,0.3,1l4-1.6c-0.1-0.1-0.1-0.2-0.2-0.3c-0.1-0.2-0.1-0.4-0.1-0.7l-3.1,0.1
		L6.2,23.6z"/>
	<path fill="#414042" d="M11.7,21.2c-0.1,0-0.2,0-0.3,0.1c-0.2,0.1-0.4,0.3-0.5,0.5c-0.1,0.2-0.1,0.5,0,0.7c0.1,0.2,0.2,0.3,0.3,0.4
		c0.3,0.2,0.6,0.2,0.8,0.1c0.5-0.2,0.7-0.7,0.5-1.2C12.4,21.4,12,21.2,11.7,21.2"/>
	<path fill="#414042" d="M11.7,26.9c-0.1,0-0.2,0-0.3,0.1c-0.1,0-0.2,0.1-0.2,0.1c-0.3,0.3-0.4,0.7-0.3,1c0,0,0,0,0,0.1
		c0.2,0.3,0.5,0.5,0.8,0.5c0.1,0,0.2,0,0.3-0.1c0.5-0.2,0.7-0.7,0.5-1.2C12.4,27.1,12,26.9,11.7,26.9"/>
	<path fill="#414042" d="M4.5,22c0.1,0.1,0.3,0.1,0.4,0.2c0.4,0.2,0.7,0.5,1,0.8l1.4-2.3c0,0-0.1,0-0.1,0c-0.2-0.1-0.4-0.3-0.5-0.5
		L4.5,22z"/>
	<path fill="#414042" d="M7.9,18.5c-0.3,0-0.6,0.2-0.8,0.5C7,19.2,7,19.5,7,19.7c0.1,0.2,0.2,0.4,0.4,0.5c0.1,0,0.2,0.1,0.3,0.1
		c0.4,0.1,0.8-0.1,1-0.4c0.1-0.2,0.2-0.5,0.1-0.7c-0.1-0.2-0.2-0.5-0.4-0.6C8.2,18.6,8.1,18.5,7.9,18.5"/>
	<path fill="#414042" d="M4.5,28l2.2,1.8c0.1-0.2,0.3-0.4,0.5-0.5c0,0,0,0,0.1,0l-1.4-2.3C5.5,27.4,5.1,27.8,4.5,28"/>
	<path fill="#414042" d="M7.9,29.6c-0.1,0-0.1,0-0.2,0c-0.1,0-0.2,0.1-0.3,0.1c-0.2,0.1-0.4,0.3-0.4,0.5C7,30.5,7,30.8,7.1,31
		c0.2,0.3,0.5,0.5,0.8,0.5c0.2,0,0.3,0,0.5-0.1c0.2-0.1,0.4-0.3,0.4-0.6c0.1-0.2,0-0.5-0.1-0.7C8.5,29.8,8.2,29.6,7.9,29.6"/>
	<path fill="#414042" d="M3.4,22.4c-0.9,0-1.8,0.5-2.3,1.3c-0.7,1.3-0.3,2.9,1,3.6c0.6,0.3,1.2,0.4,1.9,0.3h0
		c0.7-0.2,1.3-0.6,1.7-1.3v-0.1l0,0l0.1-0.1C5.9,25.8,6,25.4,6,25v0c0-0.4-0.1-0.9-0.3-1.3l0-0.1c-0.2-0.4-0.6-0.7-1-1
		c-0.2-0.1-0.5-0.2-0.8-0.3C3.7,22.4,3.5,22.4,3.4,22.4"/>
	<path fill="#414042" d="M12.2,37.9l2.6-1.8c-0.3-0.3-0.4-0.6-0.4-1l-4.1,1c0.2,0.3,0.3,0.6,0.4,1L12.2,37.9z"/>
	<path fill="#414042" d="M9,34.9c0.3,0.2,0.6,0.4,0.8,0.6l2.3-3.7c-0.1,0-0.2-0.1-0.4-0.2c-0.2-0.1-0.4-0.3-0.5-0.5l-2.5,1.9L9,34.9
		z"/>
	<path fill="#414042" d="M12,29.8c-0.1,0.1-0.2,0.2-0.2,0.2c-0.1,0.2-0.2,0.5-0.1,0.7c0.1,0.2,0.2,0.4,0.4,0.5
		c0.2,0.1,0.3,0.1,0.5,0.1c0.3,0,0.6-0.2,0.7-0.4c0.3-0.4,0.1-1-0.3-1.2C12.7,29.5,12.3,29.5,12,29.8"/>
	<path fill="#414042" d="M15.3,34.4c-0.1,0.1-0.2,0.2-0.2,0.3c0,0.1-0.1,0.2-0.1,0.2c-0.1,0.4,0.1,0.8,0.4,1c0,0,0,0,0,0
		c0.3,0.2,0.7,0.1,1-0.1c0.1-0.1,0.2-0.2,0.2-0.2c0.3-0.4,0.1-1-0.3-1.3C16,34.1,15.6,34.1,15.3,34.4"/>
	<path fill="#414042" d="M6.7,34.6c0.2,0,0.3-0.1,0.5-0.1c0.4,0,0.9,0,1.3,0.1L8.1,32c0,0-0.1,0-0.1,0c-0.2,0-0.5,0-0.7-0.1
		L6.7,34.6z"/>
	<path fill="#414042" d="M7.4,29.8C7.1,30,7,30.3,7,30.7c0,0.2,0.2,0.5,0.4,0.6c0.2,0.1,0.4,0.2,0.7,0.2c0.1,0,0.2,0,0.3-0.1
		c0.4-0.2,0.6-0.5,0.5-0.9c0-0.2-0.1-0.5-0.3-0.6c-0.2-0.2-0.4-0.2-0.7-0.2C7.7,29.7,7.5,29.7,7.4,29.8"/>
	<path fill="#414042" d="M10.2,39.4l2.8,0.2c0-0.2,0-0.5,0.1-0.7c0,0,0-0.1,0-0.1l-2.5-1.1C10.7,38.4,10.5,38.9,10.2,39.4"/>
	<path fill="#414042" d="M13.9,38.8c-0.1,0-0.1,0.1-0.1,0.1c-0.1,0.1-0.1,0.2-0.2,0.2c-0.1,0.2-0.1,0.5,0,0.7
		c0.1,0.2,0.3,0.4,0.5,0.5c0.3,0.1,0.6,0.1,0.9-0.1c0.1-0.1,0.2-0.2,0.3-0.4c0.1-0.2,0.1-0.5,0-0.7c-0.1-0.2-0.3-0.4-0.5-0.5
		C14.5,38.6,14.2,38.6,13.9,38.8"/>
	<path fill="#414042" d="M5.9,35.6c-0.8,0.6-1.2,1.5-1.1,2.4c0.1,1.4,1.5,2.5,2.9,2.4C8.4,40.3,9,40,9.5,39.5l0,0
		c0.5-0.5,0.7-1.3,0.7-2l0,0l0-0.1l0-0.1c-0.1-0.4-0.2-0.7-0.4-1.1l0,0c-0.3-0.4-0.6-0.6-1-0.8l-0.1,0c-0.4-0.2-0.9-0.3-1.4-0.2
		c-0.3,0-0.6,0.1-0.8,0.2C6.2,35.4,6.1,35.5,5.9,35.6"/>
	<path fill="#414042" d="M22.2,42.9l1.1-3c-0.4-0.1-0.7-0.2-0.9-0.5l-2.7,3.3c0.3,0.2,0.6,0.4,0.9,0.6L22.2,42.9z"/>
	<path fill="#414042" d="M17.9,42.4c0.3,0,0.7,0,1,0l-0.3-4.3c-0.1,0-0.3,0.1-0.4,0.1c-0.2,0-0.5,0-0.7-0.1l-0.9,3L17.9,42.4z"/>
	<path fill="#414042" d="M17.3,36.5c0,0.1-0.1,0.2,0,0.3c0,0.3,0.1,0.5,0.3,0.6c0.2,0.1,0.4,0.2,0.6,0.2c0.2,0,0.4-0.1,0.5-0.2
		c0.2-0.2,0.4-0.5,0.3-0.8c0-0.5-0.5-0.9-1-0.8C17.7,35.9,17.4,36.2,17.3,36.5"/>
	<path fill="#414042" d="M22.7,38.3c0,0.1-0.1,0.2,0,0.3c0,0.1,0,0.2,0.1,0.3c0.1,0.4,0.5,0.6,0.9,0.6c0,0,0,0,0.1,0
		c0.3,0,0.6-0.3,0.7-0.6c0-0.1,0-0.2,0-0.3c0-0.5-0.5-0.9-1-0.8C23.1,37.7,22.8,37.9,22.7,38.3"/>
	<path fill="#414042" d="M15.8,43.6c0.1-0.1,0.2-0.2,0.3-0.4c0.3-0.3,0.7-0.5,1.1-0.6l-1.8-2c0,0,0,0-0.1,0.1
		c-0.2,0.2-0.4,0.3-0.6,0.3L15.8,43.6z"/>
	<path fill="#414042" d="M13.6,39.3c-0.1,0.3,0,0.7,0.2,0.9c0.2,0.2,0.4,0.3,0.7,0.3c0.2,0,0.5-0.1,0.6-0.2c0.1-0.1,0.1-0.1,0.2-0.2
		c0.2-0.4,0.1-0.8-0.1-1.1c-0.2-0.2-0.4-0.3-0.6-0.3c-0.2,0-0.5,0.1-0.7,0.2C13.7,39,13.6,39.1,13.6,39.3"/>
	<path fill="#414042" d="M21.5,45.4l2.4-1.5c-0.1-0.2-0.3-0.4-0.3-0.6c0,0,0-0.1,0-0.1l-2.6,0.6C21.3,44.2,21.5,44.8,21.5,45.4"/>
	<path fill="#414042" d="M24.1,42.7c0,0.1,0,0.1,0,0.2c0,0.1,0,0.2,0,0.3c0,0.2,0.2,0.4,0.4,0.6c0.2,0.1,0.5,0.2,0.7,0.1
		c0.3-0.1,0.6-0.3,0.7-0.6c0.1-0.2,0.1-0.3,0-0.5c0-0.2-0.2-0.4-0.4-0.6c-0.2-0.1-0.5-0.2-0.7-0.1C24.5,42.1,24.2,42.4,24.1,42.7"/>
	<path fill="#414042" d="M15.8,44.8c-0.3,0.9-0.1,1.9,0.5,2.6c1,1.1,2.7,1.2,3.7,0.2c0.5-0.4,0.8-1,0.9-1.7l0,0
		c0.1-0.7-0.2-1.5-0.7-2l0,0l0-0.1l-0.1-0.1c-0.3-0.3-0.6-0.5-1-0.6l0,0c-0.4-0.1-0.9-0.2-1.3-0.1l-0.1,0c-0.5,0.1-0.9,0.3-1.2,0.6
		c-0.2,0.2-0.4,0.4-0.5,0.6C15.9,44.4,15.8,44.6,15.8,44.8"/>
	<path fill="#414042" d="M33.3,41.1l-0.9-3c-0.3,0.2-0.7,0.2-1.1,0.1l-0.3,4.3c0.3-0.1,0.7-0.1,1.1,0L33.3,41.1z"/>
	<path fill="#414042" d="M29.5,43.3c0.3-0.2,0.6-0.4,0.9-0.6l-2.8-3.3c-0.1,0.1-0.2,0.2-0.3,0.3c-0.2,0.1-0.4,0.2-0.6,0.3l1.1,2.9
		L29.5,43.3z"/>
	<path fill="#414042" d="M25.5,38.9c0,0.1,0.1,0.2,0.2,0.3c0.2,0.2,0.4,0.3,0.7,0.3c0.2,0,0.4-0.1,0.6-0.2c0.1-0.1,0.2-0.3,0.3-0.4
		c0.1-0.3,0-0.6-0.2-0.8c-0.3-0.4-0.9-0.4-1.3-0.1C25.5,38.1,25.4,38.5,25.5,38.9"/>
	<path fill="#414042" d="M30.9,37.1c0,0.1,0.1,0.2,0.2,0.3c0.1,0.1,0.1,0.1,0.2,0.2c0.3,0.2,0.8,0.2,1.1-0.1c0,0,0,0,0,0
		c0.2-0.2,0.3-0.6,0.2-0.9c0-0.1-0.1-0.2-0.2-0.3c-0.3-0.4-0.9-0.4-1.3-0.1C30.9,36.4,30.8,36.7,30.9,37.1"/>
	<path fill="#414042" d="M28.5,45.4c0-0.2,0-0.3,0.1-0.5c0.1-0.4,0.3-0.8,0.5-1.2l-2.6-0.6c0,0,0,0.1,0,0.1
		c-0.1,0.2-0.2,0.5-0.3,0.6L28.5,45.4z"/>
	<path fill="#414042" d="M24.1,43.3c0.1,0.3,0.4,0.6,0.7,0.6c0.2,0.1,0.5,0,0.7-0.1c0.2-0.1,0.3-0.3,0.4-0.6c0-0.1,0-0.2,0-0.3
		c0-0.4-0.3-0.7-0.7-0.8c-0.2-0.1-0.5,0-0.7,0.1c-0.2,0.1-0.4,0.3-0.4,0.6C24.1,43,24.1,43.1,24.1,43.3"/>
	<path fill="#414042" d="M34.2,43.6l1.1-2.6c-0.2-0.1-0.4-0.2-0.6-0.3c0,0,0,0-0.1-0.1l-1.8,2C33.3,42.8,33.8,43.1,34.2,43.6"/>
	<path fill="#414042" d="M34.7,39.8c0,0.1,0,0.1,0.1,0.2c0.1,0.1,0.1,0.2,0.2,0.2c0.2,0.2,0.4,0.2,0.6,0.2c0.3,0,0.5-0.1,0.7-0.3
		c0.2-0.2,0.3-0.6,0.2-0.9c0-0.1-0.1-0.3-0.3-0.4c-0.2-0.2-0.4-0.3-0.7-0.2c-0.2,0-0.5,0.1-0.6,0.3C34.7,39.2,34.6,39.5,34.7,39.8"
		/>
	<path fill="#414042" d="M29.2,46.4c0.3,0.9,1,1.6,2,1.8c1.4,0.3,2.8-0.6,3.1-2c0.1-0.6,0-1.3-0.3-1.9l0,0c-0.4-0.6-1-1.1-1.7-1.2
		l0,0l0,0L32,43c-0.4-0.1-0.8,0-1.1,0.1l0,0c-0.4,0.1-0.8,0.4-1.1,0.7l0,0c-0.3,0.3-0.5,0.8-0.6,1.2c-0.1,0.3-0.1,0.5,0,0.8
		C29.1,46.1,29.1,46.2,29.2,46.4"/>
	<path fill="#414042" d="M41.2,33.2l-2.5-1.9c-0.2,0.3-0.4,0.6-0.8,0.7l2.2,3.6c0.2-0.3,0.5-0.5,0.8-0.6L41.2,33.2z"/>
	<path fill="#414042" d="M39.4,37.2c0.1-0.3,0.2-0.7,0.4-1l-4.2-1c0,0.1,0,0.3,0,0.4c-0.1,0.2-0.2,0.4-0.3,0.6l2.6,1.7L39.4,37.2z"
		/>
	<path fill="#414042" d="M33.6,35.9c0.1,0.1,0.2,0.1,0.3,0.1c0.2,0.1,0.5,0,0.7-0.1c0.2-0.1,0.3-0.3,0.4-0.5c0-0.2,0-0.4,0-0.5
		c-0.1-0.3-0.3-0.5-0.6-0.6c-0.5-0.1-1,0.2-1.1,0.7C33.1,35.3,33.3,35.7,33.6,35.9"/>
	<path fill="#414042" d="M36.9,31.3c0.1,0.1,0.2,0.1,0.3,0.1c0.1,0,0.2,0,0.3,0c0.4,0,0.7-0.3,0.8-0.7c0,0,0,0,0-0.1
		c0.1-0.3-0.1-0.7-0.4-0.9c-0.1-0.1-0.2-0.1-0.3-0.2c-0.5-0.1-1,0.2-1.1,0.7C36.5,30.7,36.6,31.1,36.9,31.3"/>
	<path fill="#414042" d="M39.8,39.4c-0.1-0.1-0.2-0.3-0.2-0.4c-0.2-0.4-0.3-0.8-0.3-1.2l-2.5,1.1c0,0,0,0.1,0,0.1
		c0.1,0.2,0.1,0.5,0.1,0.7L39.8,39.4z"/>
	<path fill="#414042" d="M35,40.3c0.3,0.2,0.6,0.2,0.9,0.1c0.2-0.1,0.4-0.3,0.5-0.5c0.1-0.2,0.1-0.5,0-0.7c0-0.1-0.1-0.2-0.2-0.2
		c-0.3-0.3-0.7-0.4-1.1-0.2c-0.2,0.1-0.4,0.3-0.5,0.5c-0.1,0.2-0.1,0.5,0,0.7C34.8,40.1,34.9,40.2,35,40.3"/>
	<path fill="#414042" d="M43.3,34.6l-0.7-2.7C42.4,32,42.2,32,41.9,32c0,0-0.1,0-0.1,0l-0.3,2.7C42.1,34.5,42.7,34.5,43.3,34.6"/>
	<path fill="#414042" d="M41.6,31.3c0.1,0.1,0.1,0.1,0.2,0.1c0.1,0,0.2,0.1,0.3,0.1c0.2,0,0.5,0,0.6-0.2c0.2-0.2,0.3-0.4,0.4-0.6
		c0-0.3-0.1-0.7-0.4-0.8c-0.1-0.1-0.3-0.2-0.4-0.2c-0.3,0-0.5,0-0.7,0.2c-0.2,0.1-0.3,0.4-0.3,0.6C41.2,30.8,41.3,31.1,41.6,31.3"/>
	<path fill="#414042" d="M41,39.9c0.8,0.6,1.8,0.7,2.6,0.3c1.3-0.6,1.9-2.2,1.3-3.5c-0.3-0.6-0.8-1.1-1.3-1.3l0,0
		c-0.7-0.3-1.4-0.3-2.1,0l0,0l-0.1,0l-0.1,0c-0.3,0.2-0.6,0.4-0.9,0.8l0,0c-0.3,0.4-0.4,0.8-0.5,1.2l0,0.1c-0.1,0.5,0,0.9,0.2,1.4
		c0.1,0.3,0.3,0.5,0.5,0.7C40.7,39.6,40.8,39.8,41,39.9"/>
	<path fill="#414042" d="M42.9,22.1L39.8,22c0.1,0.4,0,0.7-0.2,1l3.9,1.6c0-0.4,0.1-0.7,0.3-1L42.9,22.1z"/>
	<path fill="#414042" d="M43.8,26.4c-0.2-0.3-0.3-0.7-0.3-1l-4,1.6c0.1,0.1,0.1,0.2,0.2,0.3c0.1,0.2,0.1,0.4,0.1,0.7l3.1-0.1
		L43.8,26.4z"/>
	<path fill="#414042" d="M38.3,28.8c0.1,0,0.2,0,0.3-0.1c0.2-0.1,0.4-0.3,0.5-0.5c0.1-0.2,0.1-0.4,0-0.7c-0.1-0.2-0.2-0.3-0.3-0.4
		c-0.2-0.2-0.6-0.2-0.8-0.1c-0.5,0.2-0.7,0.7-0.5,1.2C37.6,28.6,38,28.8,38.3,28.8"/>
	<path fill="#414042" d="M38.3,23.1c0.1,0,0.2,0,0.3-0.1c0.1,0,0.2-0.1,0.2-0.1c0.3-0.2,0.4-0.7,0.3-1c0,0,0,0,0-0.1
		c-0.2-0.3-0.5-0.5-0.8-0.5c-0.1,0-0.2,0-0.3,0.1c-0.5,0.2-0.7,0.7-0.5,1.2C37.6,22.9,38,23.1,38.3,23.1"/>
	<path fill="#414042" d="M45.5,28c-0.1-0.1-0.3-0.1-0.4-0.2c-0.4-0.2-0.7-0.5-1-0.8l-1.3,2.3c0,0,0,0,0.1,0c0.2,0.1,0.4,0.3,0.5,0.5
		L45.5,28z"/>
	<path fill="#414042" d="M42.1,31.5c0.3,0,0.6-0.2,0.8-0.5c0.1-0.2,0.2-0.5,0.1-0.7c-0.1-0.2-0.2-0.4-0.4-0.5
		c-0.1-0.1-0.2-0.1-0.3-0.1c-0.4-0.1-0.8,0.1-1,0.4c-0.1,0.2-0.2,0.5-0.1,0.7c0.1,0.2,0.2,0.4,0.4,0.6
		C41.8,31.4,41.9,31.5,42.1,31.5"/>
	<path fill="#414042" d="M45.5,22l-2.2-1.8c-0.1,0.2-0.3,0.4-0.5,0.5c0,0-0.1,0-0.1,0l1.3,2.3C44.5,22.6,44.9,22.2,45.5,22"/>
	<path fill="#414042" d="M42.1,20.4c0.1,0,0.1,0,0.2,0c0.1,0,0.2-0.1,0.3-0.1c0.2-0.1,0.3-0.3,0.4-0.5c0.1-0.2,0.1-0.5-0.1-0.7
		c-0.2-0.3-0.5-0.5-0.8-0.5c-0.2,0-0.3,0-0.5,0.1c-0.2,0.1-0.4,0.3-0.4,0.6c-0.1,0.2,0,0.5,0.1,0.7C41.5,20.2,41.8,20.4,42.1,20.4"
		/>
	<path fill="#414042" d="M46.7,27.7c0.9,0,1.8-0.5,2.3-1.3c0.7-1.3,0.3-2.9-1-3.6c-0.6-0.3-1.2-0.4-1.9-0.3l0,0
		c-0.7,0.2-1.3,0.6-1.7,1.2v0l0,0l-0.1,0.1C44.1,24.2,44,24.6,44,25v0c0,0.4,0.1,0.9,0.3,1.3l0,0c0.2,0.4,0.6,0.7,1,1
		c0.2,0.1,0.5,0.2,0.8,0.3C46.3,27.6,46.5,27.7,46.7,27.7"/>
	<path fill="#414042" d="M37.8,12.1l-2.6,1.8c0.3,0.2,0.4,0.6,0.4,1l4.1-1c-0.2-0.3-0.3-0.6-0.4-1L37.8,12.1z"/>
	<path fill="#414042" d="M41,15.1c-0.3-0.2-0.6-0.4-0.8-0.6l-2.3,3.7c0.1,0,0.2,0.1,0.4,0.2c0.2,0.1,0.4,0.3,0.5,0.5l2.5-1.9
		L41,15.1z"/>
	<path fill="#414042" d="M38,20.2c0.1-0.1,0.2-0.2,0.2-0.3c0.1-0.2,0.2-0.5,0.1-0.7c-0.1-0.2-0.2-0.4-0.4-0.5
		c-0.2-0.1-0.3-0.1-0.5-0.1c-0.3,0-0.6,0.2-0.7,0.4c-0.3,0.4-0.1,1,0.3,1.2C37.3,20.5,37.7,20.5,38,20.2"/>
	<path fill="#414042" d="M34.7,15.6c0.1-0.1,0.2-0.2,0.2-0.3c0.1-0.1,0.1-0.2,0.1-0.2c0.1-0.4-0.1-0.8-0.4-1c0,0,0,0-0.1,0
		c-0.3-0.2-0.7-0.1-1,0.1c-0.1,0.1-0.2,0.1-0.2,0.3c-0.3,0.4-0.1,1,0.3,1.2C34,15.9,34.4,15.9,34.7,15.6"/>
	<path fill="#414042" d="M43.3,15.4c-0.2,0.1-0.3,0.1-0.5,0.1c-0.4,0-0.9,0-1.3-0.1l0.3,2.7c0,0,0.1,0,0.1,0c0.2,0,0.5,0,0.7,0.1
		L43.3,15.4z"/>
	<path fill="#414042" d="M42.6,20.2c0.3-0.2,0.4-0.5,0.4-0.8c0-0.2-0.2-0.5-0.4-0.6c-0.2-0.1-0.4-0.2-0.7-0.2c-0.1,0-0.2,0-0.3,0.1
		c-0.4,0.2-0.6,0.6-0.5,0.9c0,0.2,0.1,0.5,0.3,0.6c0.2,0.2,0.4,0.2,0.7,0.2C42.4,20.4,42.5,20.3,42.6,20.2"/>
	<path fill="#414042" d="M39.8,10.6L37,10.4c0,0.2,0,0.5-0.1,0.7c0,0,0,0.1,0,0.1l2.5,1.1C39.3,11.6,39.5,11.1,39.8,10.6"/>
	<path fill="#414042" d="M36.1,11.2c0.1,0,0.1-0.1,0.1-0.1c0.1-0.1,0.1-0.1,0.2-0.2c0.1-0.2,0.1-0.5,0-0.7c-0.1-0.2-0.3-0.4-0.5-0.5
		c-0.3-0.1-0.6-0.1-0.9,0.1c-0.1,0.1-0.2,0.2-0.3,0.4c-0.1,0.2-0.1,0.5,0,0.7c0.1,0.2,0.3,0.4,0.5,0.5
		C35.5,11.4,35.8,11.4,36.1,11.2"/>
	<path fill="#414042" d="M44.1,14.4c0.8-0.5,1.2-1.5,1.1-2.4c-0.1-1.5-1.5-2.5-2.9-2.4c-0.7,0.1-1.3,0.4-1.7,0.8l0,0
		c-0.5,0.5-0.7,1.3-0.6,2l0,0l0,0.1l0,0.1c0.1,0.4,0.2,0.7,0.5,1.1l0,0c0.3,0.4,0.6,0.6,1,0.8l0.1,0c0.4,0.2,0.9,0.3,1.4,0.2
		c0.3,0,0.6-0.1,0.8-0.2C43.8,14.6,43.9,14.5,44.1,14.4"/>
	<path fill="#414042" d="M27.8,7.1l-1.1,3c0.4,0.1,0.7,0.3,0.9,0.5l2.7-3.3C30,7.2,29.7,7,29.5,6.7L27.8,7.1z"/>
	<path fill="#414042" d="M32.1,7.6c-0.4,0.1-0.7,0-1.1,0l0.3,4.3c0.1,0,0.3-0.1,0.4-0.1c0.2,0,0.5,0,0.7,0.1l0.9-3L32.1,7.6z"/>
	<path fill="#414042" d="M32.7,13.5c0-0.1,0.1-0.2,0-0.3c0-0.3-0.1-0.5-0.3-0.7c-0.2-0.1-0.4-0.2-0.6-0.2c-0.2,0-0.4,0.1-0.5,0.2
		C31.1,12.7,31,13,31,13.3c0,0.5,0.5,0.9,1,0.8C32.3,14.1,32.6,13.8,32.7,13.5"/>
	<path fill="#414042" d="M27.3,11.7c0-0.1,0.1-0.2,0-0.3c0-0.1,0-0.2-0.1-0.3c-0.1-0.4-0.5-0.6-0.9-0.6h0c-0.3,0.1-0.6,0.3-0.7,0.6
		c0,0.1,0,0.2,0,0.3c0,0.5,0.5,0.9,1,0.8C26.9,12.3,27.2,12.1,27.3,11.7"/>
	<path fill="#414042" d="M34.2,6.4c-0.1,0.1-0.2,0.2-0.3,0.3c-0.3,0.3-0.7,0.5-1.1,0.7l1.8,2c0,0,0,0,0.1-0.1
		C34.8,9.2,35,9.1,35.2,9L34.2,6.4z"/>
	<path fill="#414042" d="M36.4,10.8c0.1-0.3,0-0.7-0.2-0.9c-0.2-0.2-0.4-0.3-0.7-0.3c-0.2,0-0.5,0.1-0.6,0.2
		c-0.1,0.1-0.1,0.1-0.2,0.2c-0.2,0.4-0.2,0.8,0.1,1.1c0.2,0.2,0.4,0.3,0.6,0.3c0.2,0,0.5-0.1,0.7-0.2C36.3,11,36.4,10.9,36.4,10.8"
		/>
	<path fill="#414042" d="M28.5,4.6l-2.4,1.5c0.1,0.2,0.2,0.4,0.3,0.6c0,0,0,0.1,0,0.1l2.6-0.6C28.7,5.8,28.5,5.2,28.5,4.6"/>
	<path fill="#414042" d="M25.9,7.3c0-0.1,0-0.1,0-0.2c0-0.1,0-0.2,0-0.3c0-0.2-0.2-0.4-0.4-0.6c-0.2-0.1-0.5-0.2-0.7-0.1
		c-0.3,0.1-0.6,0.3-0.7,0.6c-0.1,0.2-0.1,0.3,0,0.5c0,0.2,0.2,0.5,0.4,0.6c0.2,0.1,0.4,0.2,0.7,0.1C25.5,7.9,25.8,7.6,25.9,7.3"/>
	<path fill="#414042" d="M34.2,5.2c0.3-0.9,0.1-1.9-0.6-2.6c-1-1.1-2.7-1.2-3.7-0.2c-0.5,0.4-0.8,1-0.9,1.7v0
		c-0.1,0.7,0.2,1.5,0.7,2l0,0l0,0.1l0.1,0.1c0.3,0.3,0.6,0.5,1,0.6l0,0c0.4,0.1,0.9,0.2,1.3,0.1l0.1,0c0.5-0.1,0.9-0.3,1.2-0.6
		C33.7,6.2,33.8,6,34,5.7C34.1,5.6,34.2,5.4,34.2,5.2"/>
	<path fill="#414042" d="M16.7,8.9l0.9,3c0.3-0.2,0.7-0.2,1.1-0.1l0.3-4.2c-0.3,0.1-0.7,0.1-1,0L16.7,8.9z"/>
	<path fill="#414042" d="M20.5,6.7C20.3,7,20,7.2,19.6,7.3l2.8,3.3c0.1-0.1,0.2-0.2,0.3-0.3c0.2-0.1,0.4-0.2,0.6-0.3l-1.1-2.9
		L20.5,6.7z"/>
	<path fill="#414042" d="M24.5,11.1c0-0.1-0.1-0.2-0.2-0.3c-0.2-0.2-0.4-0.3-0.7-0.3c-0.2,0-0.5,0.1-0.6,0.2
		c-0.1,0.1-0.2,0.3-0.3,0.5c-0.1,0.3,0,0.6,0.2,0.8c0.3,0.4,0.9,0.4,1.3,0.1C24.5,11.9,24.6,11.5,24.5,11.1"/>
	<path fill="#414042" d="M19.1,12.9c0-0.1-0.1-0.2-0.2-0.3c0-0.1-0.1-0.1-0.2-0.2c-0.3-0.2-0.8-0.2-1.1,0.1c0,0,0,0,0,0
		c-0.3,0.2-0.3,0.6-0.2,0.9c0,0.1,0.1,0.2,0.2,0.3c0.3,0.4,0.9,0.4,1.3,0.1C19.1,13.6,19.2,13.3,19.1,12.9"/>
	<path fill="#414042" d="M21.5,4.6c0,0.2,0,0.3-0.1,0.5c-0.1,0.4-0.3,0.8-0.5,1.2l2.6,0.6c0,0,0-0.1,0-0.1c0.1-0.2,0.2-0.5,0.3-0.6
		L21.5,4.6z"/>
	<path fill="#414042" d="M25.9,6.7c-0.1-0.3-0.4-0.6-0.7-0.6c-0.2-0.1-0.5,0-0.7,0.1c-0.2,0.1-0.3,0.3-0.4,0.6c0,0.1,0,0.2,0,0.3
		c0,0.4,0.3,0.7,0.7,0.8c0.2,0,0.5,0,0.7-0.1c0.2-0.1,0.3-0.3,0.4-0.6C25.9,7.1,25.9,6.9,25.9,6.7"/>
	<path fill="#414042" d="M15.8,6.4L14.8,9c0.2,0.1,0.4,0.2,0.6,0.3c0,0,0,0,0.1,0.1l1.8-2C16.7,7.2,16.2,6.9,15.8,6.4"/>
	<path fill="#414042" d="M15.3,10.2c0-0.1-0.1-0.1-0.1-0.2c-0.1-0.1-0.1-0.2-0.2-0.2c-0.2-0.2-0.4-0.2-0.6-0.2
		c-0.3,0-0.5,0.1-0.7,0.3c-0.2,0.2-0.3,0.6-0.2,0.9c0.1,0.2,0.1,0.3,0.3,0.4c0.2,0.2,0.4,0.2,0.7,0.2c0.2,0,0.5-0.1,0.6-0.3
		C15.3,10.8,15.4,10.5,15.3,10.2"/>
	<path fill="#414042" d="M20.8,3.6c-0.3-0.9-1-1.6-2-1.8c-1.4-0.3-2.8,0.6-3.1,2c-0.1,0.6,0,1.3,0.3,1.9l0,0c0.4,0.6,1,1.1,1.7,1.2
		l0.1,0l0,0L18,7c0.4,0,0.8,0,1.1-0.1l0,0c0.4-0.1,0.8-0.4,1.1-0.7l0,0c0.3-0.3,0.5-0.8,0.6-1.2c0.1-0.3,0.1-0.6,0-0.8
		C20.9,4,20.9,3.8,20.8,3.6"/>
	<path fill="#414042" d="M8.8,16.8l2.5,1.9c0.2-0.3,0.4-0.6,0.8-0.7l-2.3-3.6c-0.2,0.3-0.5,0.5-0.8,0.6L8.8,16.8z"/>
	<path fill="#414042" d="M10.6,12.8c-0.1,0.3-0.2,0.7-0.4,1l4.2,1c0-0.1,0-0.3,0-0.4c0.1-0.2,0.2-0.4,0.3-0.6l-2.6-1.7L10.6,12.8z"
		/>
	<path fill="#414042" d="M16.4,14.1C16.4,14,16.2,14,16.1,14c-0.2-0.1-0.5,0-0.7,0.1c-0.2,0.1-0.3,0.3-0.4,0.5c0,0.2,0,0.4,0,0.5
		c0.1,0.3,0.3,0.5,0.6,0.5c0.5,0.1,1-0.2,1.1-0.6C16.9,14.7,16.7,14.3,16.4,14.1"/>
	<path fill="#414042" d="M13.1,18.7c-0.1-0.1-0.2-0.1-0.3-0.1c-0.1,0-0.2,0-0.3,0c-0.4,0-0.7,0.3-0.8,0.7c0,0,0,0,0,0
		c-0.1,0.4,0.1,0.7,0.4,0.9c0.1,0.1,0.2,0.1,0.3,0.1c0.5,0.1,1-0.2,1.1-0.7C13.5,19.3,13.4,18.9,13.1,18.7"/>
	<path fill="#414042" d="M10.2,10.6c0.1,0.1,0.2,0.3,0.2,0.4c0.2,0.4,0.3,0.8,0.3,1.2l2.5-1.1c0,0,0-0.1,0-0.1
		C13,10.8,13,10.6,13,10.4L10.2,10.6z"/>
	<path fill="#414042" d="M15,9.7c-0.3-0.2-0.6-0.2-0.9-0.1c-0.2,0.1-0.4,0.3-0.5,0.5c-0.1,0.2-0.1,0.5,0,0.7c0,0.1,0.1,0.2,0.2,0.2
		c0.3,0.3,0.7,0.4,1.1,0.2c0.2-0.1,0.4-0.3,0.5-0.5c0.1-0.2,0.1-0.5,0-0.7C15.2,9.9,15.1,9.8,15,9.7"/>
	<path fill="#414042" d="M6.7,15.4l0.7,2.7C7.6,18,7.8,18,8.1,18c0,0,0.1,0,0.1,0l0.3-2.7C7.9,15.5,7.3,15.5,6.7,15.4"/>
	<path fill="#414042" d="M8.4,18.7c-0.1,0-0.1-0.1-0.2-0.1c-0.1,0-0.2-0.1-0.3-0.1c-0.2,0-0.5,0.1-0.7,0.2C7.1,18.9,7,19.1,7,19.3
		c0,0.3,0.1,0.7,0.4,0.8c0.1,0.1,0.3,0.2,0.4,0.2c0.2,0,0.5,0,0.7-0.2c0.2-0.2,0.3-0.4,0.3-0.6C8.9,19.2,8.7,18.9,8.4,18.7"/>
	<path fill="#414042" d="M9,10.1C8.3,9.6,7.3,9.5,6.4,9.9c-1.3,0.6-1.9,2.2-1.3,3.5c0.3,0.6,0.8,1.1,1.3,1.3l0,0
		c0.7,0.3,1.4,0.3,2.1,0l0,0l0.1,0l0.1-0.1c0.3-0.2,0.6-0.4,0.9-0.8l0,0c0.3-0.4,0.4-0.8,0.5-1.2l0-0.1c0.1-0.5,0-0.9-0.2-1.4
		c-0.1-0.2-0.3-0.5-0.4-0.7C9.3,10.4,9.2,10.2,9,10.1"/>
</g>
</svg>
